<?xml version="1.0" encoding="utf-8"?>
<!-- Generator: Adobe Illustrator 18.0.0, SVG Export Plug-In . SVG Version: 6.00 Build 0)  -->
<!DOCTYPE svg PUBLIC "-//W3C//DTD SVG 1.0//EN" "http://www.w3.org/TR/2001/REC-SVG-20010904/DTD/svg10.dtd">
<svg version="1.0" id="Layer_1" xmlns="http://www.w3.org/2000/svg" xmlns:xlink="http://www.w3.org/1999/xlink" x="0px" y="0px"
	 viewBox="308.9 268.1 170 59.3" enable-background="new 308.9 268.1 170 59.3" xml:space="preserve">
<g>
	<g>
		<path fill="#FFFFFF" d="M378.4,305.5c-2.6,2-5.1,3.5-7.5,4.5c-2.4,1-5.1,1.5-8.1,1.5c-2.8,0-5.2-0.5-7.3-1.6
			c-2.1-1.1-3.7-2.6-4.8-4.4c-1.1-1.9-1.7-3.9-1.7-6c0-2.9,0.9-5.4,2.8-7.5c1.9-2,4.4-3.4,7.7-4.1c0.7-0.1,2.4-0.5,5.1-1.1
			c2.7-0.5,5-1.1,6.9-1.5c1.9-0.4,4-1,6.3-1.6c-0.1-2.8-0.7-4.9-1.7-6.2c-1-1.3-3.1-2-6.3-2c-2.7,0-4.8,0.4-6.2,1.1
			c-1.4,0.8-2.6,1.9-3.5,3.4c-1,1.5-1.7,2.5-2.1,3c-0.4,0.5-1.3,0.7-2.6,0.7c-1.2,0-2.2-0.4-3.1-1.2c-0.9-0.8-1.3-1.8-1.3-3
			c0-1.9,0.7-3.7,2-5.5c1.3-1.8,3.4-3.2,6.2-4.4c2.8-1.1,6.3-1.7,10.6-1.7c4.7,0,8.4,0.5,11.1,1.6c2.7,1.1,4.6,2.8,5.7,5.3
			c1.1,2.4,1.7,5.6,1.7,9.5c0,2.5,0,4.6,0,6.4c0,1.8,0,3.7-0.1,5.8c0,2,0.3,4.1,1,6.3c0.7,2.2,1,3.6,1,4.2c0,1.1-0.5,2.1-1.5,3
			c-1,0.9-2.2,1.4-3.5,1.4c-1.1,0-2.2-0.5-3.3-1.5C380.7,309,379.6,307.5,378.4,305.5z M377.7,290.1c-1.6,0.6-3.9,1.2-6.9,1.8
			c-3,0.6-5.1,1.1-6.2,1.4c-1.1,0.3-2.2,0.9-3.3,1.8c-1.1,0.9-1.6,2.1-1.6,3.7c0,1.6,0.6,3,1.8,4.1s2.8,1.7,4.8,1.7
			c2.1,0,4.1-0.5,5.9-1.4c1.8-0.9,3.1-2.1,4-3.6c1-1.6,1.5-4.3,1.5-8V290.1z"/>
	</g>
	<g>
		<g>
			<path fill="#45B75E" d="M345.6,297.6c0,3-0.7,5.5-2.2,7.6c-1.4,2.1-3.6,3.7-6.4,4.8c-2.8,1.1-6.2,1.6-10.3,1.6
				c-3.9,0-7.2-0.6-9.9-1.8c-2.8-1.2-4.8-2.6-6.1-4.4c-1.3-1.8-2-3.5-2-5.3c0-1.2,0.4-2.2,1.2-3c0.8-0.8,1.9-1.2,3.2-1.2
				c1.1,0,2,0.3,2.6,0.8c0.6,0.5,1.2,1.3,1.7,2.3c1.1,1.9,2.4,3.3,4,4.3c1.5,0.9,3.6,1.4,6.3,1.4c2.2,0,3.9-0.5,5.3-1.4
				c1.4-0.9,2.1-2,2.1-3.3c0-1.9-0.7-3.3-2.1-4.1c-1.4-0.9-3.8-1.7-7-2.4c-3.7-0.9-6.7-1.9-9-2.9c-2.3-1-4.2-2.3-5.5-4
				c-1.4-1.6-2.1-3.7-2.1-6.1c0-2.2,0.6-4.2,1.9-6.1s3.2-3.4,5.7-4.6c2.5-1.1,5.5-1.7,9.1-1.7c2.8,0,5.3,0.3,7.5,0.9
				s4.1,1.4,5.5,2.3c1.5,0.9,2.6,2,3.4,3.2s1.2,2.3,1.2,3.4c0,1.2-0.4,2.2-1.2,3c-0.8,0.8-2,1.2-3.5,1.2c-1.1,0-2.1-0.3-2.8-0.9
				c-0.8-0.6-1.7-1.6-2.6-2.8c-0.8-1.1-1.8-1.9-2.9-2.5c-1.1-0.6-2.6-0.9-4.5-0.9c-1.9,0-3.6,0.4-4.8,1.2c-1.3,0.8-1.9,1.8-1.9,3.1
				c0,1.1,0.5,2,1.4,2.7c1,0.7,2.2,1.3,3.8,1.8c1.6,0.5,3.8,1.1,6.6,1.7c3.3,0.8,6.1,1.8,8.1,2.9c2.1,1.1,3.7,2.4,4.8,4
				C345.1,293.9,345.6,295.6,345.6,297.6z"/>
		</g>
	</g>
	<g>
		<path fill="#FFFFFF" d="M402.9,274.1v1.3c2-2.5,4.1-4.3,6.3-5.4c2.2-1.2,4.6-1.8,7.4-1.8c3.3,0,6.3,0.8,9.1,2.6
			c2.8,1.7,5,4.2,6.6,7.4c1.6,3.3,2.4,7.1,2.4,11.6c0,3.3-0.5,6.3-1.4,9.1c-0.9,2.7-2.2,5-3.8,6.9s-3.5,3.3-5.8,4.3
			c-2.2,1-4.6,1.5-7.1,1.5c-3.1,0-5.6-0.6-7.7-1.8c-2.1-1.2-4.1-3-5.9-5.4v16c0,4.7-1.7,7.1-5.1,7.1c-2,0-3.3-0.6-4-1.8
			c-0.7-1.2-1-3-1-5.3v-46.1c0-2,0.4-3.5,1.3-4.6c0.9-1,2.1-1.5,3.7-1.5c1.5,0,2.8,0.5,3.7,1.5C402.4,270.7,402.9,272.2,402.9,274.1
			z M423.9,289.7c0-2.8-0.4-5.2-1.3-7.3c-0.9-2-2.1-3.6-3.6-4.6c-1.5-1.1-3.2-1.6-5.1-1.6c-3,0-5.5,1.2-7.5,3.5c-2,2.3-3,5.7-3,10.2
			c0,4.2,1,7.6,3,9.9c2,2.4,4.5,3.5,7.5,3.5c1.8,0,3.4-0.5,5-1.5s2.8-2.6,3.7-4.6C423.4,295.1,423.9,292.6,423.9,289.7z"/>
	</g>
	<g>
		<path fill="#FFFFFF" d="M478.9,289.8c0,3.2-0.5,6.1-1.5,8.8c-1,2.7-2.4,5-4.3,6.9c-1.9,1.9-4.1,3.4-6.7,4.5
			c-2.6,1-5.6,1.5-8.8,1.5c-3.2,0-6.2-0.5-8.8-1.6c-2.6-1.1-4.8-2.5-6.7-4.5c-1.9-1.9-3.3-4.2-4.3-6.9c-1-2.6-1.5-5.6-1.5-8.8
			c0-3.2,0.5-6.2,1.5-8.9c1-2.7,2.4-5,4.3-6.9s4.1-3.4,6.7-4.4s5.6-1.5,8.8-1.5c3.3,0,6.2,0.5,8.8,1.6c2.6,1.1,4.9,2.5,6.8,4.5
			c1.9,1.9,3.3,4.2,4.3,6.9C478.4,283.7,478.9,286.6,478.9,289.8z M468.1,289.8c0-4.3-1-7.7-2.9-10.2c-1.9-2.4-4.5-3.7-7.7-3.7
			c-2.1,0-3.9,0.5-5.5,1.6c-1.6,1.1-2.8,2.7-3.7,4.8c-0.9,2.1-1.3,4.6-1.3,7.4c0,2.8,0.4,5.2,1.3,7.3c0.8,2.1,2.1,3.7,3.7,4.8
			c1.6,1.1,3.4,1.6,5.6,1.6c3.3,0,5.8-1.2,7.7-3.7C467.2,297.5,468.1,294.2,468.1,289.8z"/>
	</g>
</g>
</svg>
