<?xml version="1.0" encoding="utf-8"?>
<!-- Generator: Adobe Illustrator 18.0.0, SVG Export Plug-In . SVG Version: 6.00 Build 0)  -->
<!DOCTYPE svg PUBLIC "-//W3C//DTD SVG 1.0//EN" "http://www.w3.org/TR/2001/REC-SVG-20010904/DTD/svg10.dtd">
<svg version="1.0" id="Layer_1" xmlns="http://www.w3.org/2000/svg" xmlns:xlink="http://www.w3.org/1999/xlink" x="0px" y="0px"
	 viewBox="0 150.1 143 50" enable-background="new 0 150.1 143 50" xml:space="preserve">
<g>
	<g>
		<path fill="#273039" d="M58.4,181.7c-2.2,1.7-4.3,3-6.3,3.8s-4.3,1.3-6.9,1.3c-2.3,0-4.4-0.5-6.1-1.4c-1.8-0.9-3.1-2.1-4.1-3.7
			c-0.9-1.6-1.4-3.3-1.4-5.1c0-2.5,0.8-4.6,2.3-6.3c1.6-1.7,3.7-2.9,6.5-3.5c0.6-0.1,2-0.4,4.3-0.9c2.3-0.5,4.2-0.9,5.8-1.3
			c1.6-0.4,3.4-0.9,5.3-1.4c-0.1-2.4-0.6-4.1-1.4-5.2c-0.8-1.1-2.6-1.7-5.3-1.7c-2.3,0-4,0.3-5.2,1c-1.2,0.6-2.2,1.6-3,2.9
			s-1.4,2.1-1.8,2.5c-0.3,0.4-1.1,0.6-2.2,0.6c-1,0-1.9-0.3-2.6-1c-0.7-0.6-1.1-1.5-1.1-2.5c0-1.6,0.6-3.1,1.7-4.6
			c1.1-1.5,2.9-2.7,5.3-3.7c2.4-1,5.3-1.5,8.9-1.5c4,0,7.1,0.5,9.4,1.4c2.3,0.9,3.9,2.4,4.8,4.4s1.4,4.7,1.4,8c0,2.1,0,3.9,0,5.4
			c0,1.5,0,3.1-0.1,4.9c0,1.7,0.3,3.5,0.8,5.3c0.6,1.8,0.8,3,0.8,3.5c0,0.9-0.4,1.8-1.3,2.5c-0.9,0.8-1.9,1.1-3,1.1
			c-0.9,0-1.8-0.4-2.7-1.3C60.4,184.6,59.5,183.3,58.4,181.7z M57.8,168.8c-1.3,0.5-3.2,1-5.8,1.5c-2.5,0.5-4.3,0.9-5.2,1.2
			c-1,0.3-1.9,0.7-2.8,1.5c-0.9,0.7-1.3,1.8-1.3,3.1c0,1.4,0.5,2.5,1.6,3.5c1,1,2.4,1.4,4.1,1.4c1.8,0,3.4-0.4,4.9-1.2
			c1.5-0.8,2.6-1.8,3.3-3c0.8-1.4,1.2-3.6,1.2-6.7V168.8z"/>
	</g>
	<g>
		<g>
			<path fill="#45B75E" d="M31,175c0,2.5-0.6,4.6-1.8,6.4c-1.2,1.8-3,3.1-5.4,4c-2.4,0.9-5.3,1.4-8.7,1.4c-3.2,0-6-0.5-8.3-1.5
				s-4-2.2-5.1-3.7c-1.1-1.5-1.7-3-1.7-4.5c0-1,0.4-1.8,1.1-2.5c0.7-0.7,1.6-1.1,2.7-1.1c0.9,0,1.7,0.2,2.2,0.7
				c0.5,0.5,1,1.1,1.5,1.9c0.9,1.6,2,2.8,3.3,3.6s3,1.2,5.3,1.2c1.8,0,3.3-0.4,4.4-1.2c1.2-0.8,1.7-1.7,1.7-2.8
				c0-1.6-0.6-2.7-1.8-3.5c-1.2-0.7-3.2-1.4-5.9-2.1c-3.1-0.8-5.6-1.6-7.6-2.4s-3.5-2-4.7-3.3c-1.2-1.4-1.8-3.1-1.8-5.1
				c0-1.8,0.5-3.5,1.6-5.1s2.7-2.9,4.8-3.8c2.1-1,4.6-1.4,7.6-1.4c2.3,0,4.4,0.2,6.3,0.7c1.9,0.5,3.4,1.1,4.7,1.9
				c1.2,0.8,2.2,1.7,2.8,2.7c0.6,1,1,2,1,2.9c0,1-0.3,1.9-1,2.5c-0.7,0.7-1.7,1-3,1c-0.9,0-1.7-0.3-2.4-0.8
				c-0.7-0.5-1.4-1.3-2.2-2.4c-0.7-0.9-1.5-1.6-2.4-2.1c-0.9-0.5-2.2-0.8-3.8-0.8s-3,0.3-4.1,1c-1,0.8-1.6,1.7-1.6,2.7
				c0,0.9,0.4,1.7,1.2,2.3c0.8,0.6,1.9,1.1,3.2,1.5s3.2,0.9,5.6,1.4c2.8,0.7,5.1,1.5,6.9,2.4c1.8,0.9,3.1,2.1,4,3.3
				C30.5,171.9,31,173.3,31,175z"/>
		</g>
	</g>
	<g>
		<path fill="#273039" d="M79.1,155.3v1.1c1.7-2.1,3.5-3.6,5.3-4.6c1.8-1,3.9-1.5,6.2-1.5c2.8,0,5.3,0.7,7.7,2.1
			c2.3,1.4,4.2,3.5,5.5,6.3c1.4,2.7,2,6,2,9.8c0,2.8-0.4,5.3-1.2,7.6c-0.8,2.3-1.9,4.3-3.2,5.8c-1.4,1.6-3,2.8-4.8,3.6
			c-1.9,0.8-3.9,1.3-6,1.3c-2.6,0-4.7-0.5-6.5-1.5c-1.8-1-3.4-2.5-5-4.5v13.5c0,4-1.4,5.9-4.3,5.9c-1.7,0-2.8-0.5-3.4-1.5
			c-0.6-1-0.8-2.5-0.8-4.5v-38.7c0-1.7,0.4-3,1.1-3.8c0.8-0.8,1.8-1.3,3.1-1.3c1.3,0,2.3,0.4,3.1,1.3
			C78.7,152.4,79.1,153.7,79.1,155.3z M96.8,168.4c0-2.4-0.4-4.4-1.1-6.1c-0.7-1.7-1.7-3-3-3.9c-1.3-0.9-2.7-1.4-4.3-1.4
			c-2.5,0-4.6,1-6.3,2.9c-1.7,2-2.6,4.8-2.6,8.6c0,3.6,0.8,6.4,2.5,8.4c1.7,2,3.8,3,6.3,3c1.5,0,2.9-0.4,4.2-1.3
			c1.3-0.9,2.3-2.2,3.1-3.9C96.4,172.9,96.8,170.8,96.8,168.4z"/>
	</g>
	<g>
		<path fill="#273039" d="M143,168.6c0,2.7-0.4,5.2-1.3,7.4c-0.8,2.3-2.1,4.2-3.6,5.8c-1.6,1.6-3.5,2.9-5.7,3.7
			c-2.2,0.9-4.7,1.3-7.4,1.3c-2.7,0-5.2-0.4-7.4-1.3c-2.2-0.9-4.1-2.1-5.7-3.8c-1.6-1.6-2.8-3.6-3.6-5.8s-1.2-4.7-1.2-7.4
			s0.4-5.2,1.3-7.5c0.8-2.3,2-4.2,3.6-5.8c1.6-1.6,3.5-2.8,5.7-3.7c2.2-0.9,4.7-1.3,7.4-1.3c2.7,0,5.2,0.4,7.4,1.3
			c2.2,0.9,4.1,2.1,5.7,3.8c1.6,1.6,2.8,3.6,3.6,5.8C142.6,163.4,143,165.9,143,168.6z M134,168.6c0-3.7-0.8-6.5-2.4-8.6
			c-1.6-2-3.8-3.1-6.5-3.1c-1.8,0-3.3,0.5-4.7,1.4c-1.3,0.9-2.4,2.3-3.1,4c-0.7,1.8-1.1,3.9-1.1,6.2c0,2.4,0.4,4.4,1.1,6.2
			c0.7,1.8,1.7,3.1,3.1,4c1.3,0.9,2.9,1.4,4.7,1.4c2.7,0,4.9-1,6.5-3.1C133.1,174.9,134,172.1,134,168.6z"/>
	</g>
</g>
</svg>
